<svg width="73" height="100" viewBox="0 0 73 87" xmlns="http://www.w3.org/2000/svg">
    <filter id="a">
        <feGaussianBlur in="SourceGraphic"></feGaussianBlur>
    </filter>
    <path filter="url(#a)" d="M122.196 12.94v34.107c0 .579-.26 1.095-.661 1.453.402.358.66.874.66 1.453v34.106a1.955 1.955 0 0 1-1.952 1.953h-56.3a1.955 1.955 0 0 1-1.953-1.953V49.953c0-.58.259-1.095.66-1.453a1.942 1.942 0 0 1-.66-1.453V12.94c0-1.077.876-1.953 1.953-1.953h56.3c1.077 0 1.953.876 1.953 1.953zm-1 34.107V12.94a.955.955 0 0 0-.953-.953h-56.3a.955.955 0 0 0-.953.953v34.106c0 .525.428.953.953.953h56.3a.955.955 0 0 0 .953-.953zm0 31.306v-28.4a.955.955 0 0 0-.953-.953h-56.3a.955.955 0 0 0-.953.953v28.399a.51.51 0 0 1 .193-.038h57.82c.068 0 .134.014.193.039zM87.209 53.33a.5.5 0 0 1 .5.5v20.33a.5.5 0 0 1-.5.5H67.67a.5.5 0 0 1-.5-.5V53.83a.5.5 0 0 1 .5-.5h19.537zm-.5 18.988V54.33H68.17v17.989c2.374-2.565 5.746-4.068 9.27-4.068 3.522 0 6.894 1.503 9.267 4.067zM68.35 73.66h18.18c-2.195-2.761-5.555-4.41-9.09-4.41-3.532 0-6.894 1.65-9.09 4.41zm43.28-41.188a6.051 6.051 0 0 1 6.044 6.045 6.05 6.05 0 0 1-6.044 6.044 6.05 6.05 0 0 1-6.044-6.044 6.051 6.051 0 0 1 6.044-6.045zm0 11.09a5.05 5.05 0 0 0 5.044-5.044 5.05 5.05 0 0 0-5.044-5.046 5.05 5.05 0 0 0-5.044 5.045 5.05 5.05 0 0 0 5.044 5.044zM77.44 66.736a5.186 5.186 0 0 1-5.18-5.18 5.187 5.187 0 0 1 5.18-5.181 5.187 5.187 0 0 1 5.181 5.181 5.186 5.186 0 0 1-5.18 5.18zm0-9.361a4.185 4.185 0 0 0-4.18 4.181 4.185 4.185 0 0 0 4.18 4.18 4.185 4.185 0 0 0 4.181-4.18 4.186 4.186 0 0 0-4.18-4.181zM89.52 17.622a.5.5 0 0 1 0 1H67.67a.5.5 0 0 1 0-1H89.52zM67.67 22.78a.5.5 0 0 1 0-1h8.878a.5.5 0 0 1 0 1H67.67zm21.847 4.545a.5.5 0 0 1 0 1H67.672a.5.5 0 0 1 0-1h21.847zm-14.454 4.356a.5.5 0 0 1 0 1H67.67a.5.5 0 0 1 0-1h7.392zm39.701 21.65a.5.5 0 0 1 0 1H93.578a.5.5 0 1 1 0-1h21.187zM93.578 58.72a.5.5 0 0 1 0-1h8.515a.5.5 0 0 1 0 1h-8.515zm21.187 4.775a.5.5 0 0 1 0 1H93.578a.5.5 0 1 1 0-1h21.187zm-7.128 4.125a.5.5 0 0 1 0 1h-14.06a.5.5 0 0 1 0-1h14.06zm13.559 16.439v-4.784a.515.515 0 0 1-.193.039h-57.82a.511.511 0 0 1-.193-.04v4.785c0 .525.428.953.953.953h56.3a.955.955 0 0 0 .953-.953zM56.5 17.977a.5.5 0 0 1-.5-.5V7.681a2.684 2.684 0 0 1 2.68-2.68h9.799a.5.5 0 1 1 0 1H58.68c-.926 0-1.68.752-1.68 1.68v9.796a.5.5 0 0 1-.5.5zM125.502 5a2.684 2.684 0 0 1 2.681 2.682v9.795a.499.499 0 1 1-1 0V7.682c0-.928-.754-1.682-1.68-1.682h-9.798a.5.5 0 0 1 0-1h9.797zM68.48 91a.5.5 0 0 1 0 1h-9.797A2.684 2.684 0 0 1 56 89.319v-9.796a.5.5 0 0 1 1 0v9.796c0 .927.755 1.681 1.682 1.681h9.797zm59.206-11.977a.5.5 0 0 1 .5.5v9.796A2.684 2.684 0 0 1 125.504 92h-9.797a.5.5 0 0 1 0-1h9.797c.927 0 1.68-.754 1.68-1.68v-9.797a.5.5 0 0 1 .5-.5z" transform="translate(-56 -5)" fill="#333" shape-rendering="geometricPrecision" fill-rule="evenodd"></path>
</svg>