<svg width="123" height="100" viewBox="0 0 123 66" xmlns="http://www.w3.org/2000/svg">
    <filter id="a">
        <feGaussianBlur in="SourceGraphic"></feGaussianBlur>
    </filter>
    <path filter="url(#a)" d="M86.332 15a3.563 3.563 0 0 1 3.558 3.558v58.564a3.563 3.563 0 0 1-3.558 3.559H34.559A3.564 3.564 0 0 1 31 77.122V18.558A3.563 3.563 0 0 1 34.559 15h51.773zm2.558 62.122V18.558A2.56 2.56 0 0 0 86.332 16H34.559A2.561 2.561 0 0 0 32 18.558v58.564a2.562 2.562 0 0 0 2.559 2.559h51.773a2.561 2.561 0 0 0 2.558-2.559zM150.44 15A3.563 3.563 0 0 1 154 18.558v58.564a3.563 3.563 0 0 1-3.558 3.559H98.668a3.563 3.563 0 0 1-3.56-3.559V18.558A3.563 3.563 0 0 1 98.669 15h51.773zM153 77.122V18.558A2.56 2.56 0 0 0 150.44 16H98.668a2.561 2.561 0 0 0-2.56 2.558v58.564a2.562 2.562 0 0 0 2.56 2.559h51.773a2.562 2.562 0 0 0 2.558-2.559zm-72.02-48.598a.5.5 0 0 1 0 1H61.531a.5.5 0 0 1 0-1H80.98zm0 11.517a.5.5 0 0 1 0 1H61.531a.5.5 0 0 1 0-1H80.98zm0 11.516a.5.5 0 0 1 0 1H39.911a.5.5 0 0 1 0-1H80.98zm0 11.516a.5.5 0 0 1 0 1H39.911a.5.5 0 0 1 0-1H80.98zm23.041-33.549a.5.5 0 0 1 0-1h41.067a.5.5 0 1 1 0 1H104.02zm0 11.517a.5.5 0 0 1 0-1h41.067a.5.5 0 1 1 0 1H104.02zm0 11.516a.5.5 0 0 1 0-1h41.067a.5.5 0 1 1 0 1H104.02zm27.742 10.516a.5.5 0 0 1 0 1H104.02a.5.5 0 1 1 0-1h27.74zM39.556 42.23a.494.494 0 0 1-.1-.134 9.662 9.662 0 0 1-1.863-5.7c0-5.361 4.36-9.722 9.72-9.722s9.722 4.36 9.722 9.722a9.663 9.663 0 0 1-1.865 5.703.485.485 0 0 1-.09.119c-1.775 2.362-4.59 3.899-7.766 3.899-3.17 0-5.982-1.532-7.758-3.887zm7.758-14.556c-4.81 0-8.721 3.912-8.721 8.722 0 1.709.5 3.3 1.355 4.648 1.837-2.134 4.535-3.401 7.366-3.401 2.83 0 5.529 1.267 7.366 3.402a8.658 8.658 0 0 0 1.355-4.65c0-4.81-3.912-8.721-8.721-8.721zm0 17.443a8.704 8.704 0 0 0 6.768-3.231 8.751 8.751 0 0 0-6.768-3.243c-2.623 0-5.12 1.212-6.768 3.243a8.704 8.704 0 0 0 6.768 3.23zm0-15.513a3.066 3.066 0 0 1 3.062 3.063 3.064 3.064 0 0 1-3.062 3.061 3.065 3.065 0 0 1-3.062-3.06 3.066 3.066 0 0 1 3.062-3.064zm0 7.124a4.066 4.066 0 0 1-4.062-4.06 4.067 4.067 0 0 1 4.062-4.064 4.067 4.067 0 0 1 4.062 4.063 4.066 4.066 0 0 1-4.062 4.061zm96.254 21.54a2.349 2.349 0 0 1 2.346 2.345v5.92a2.349 2.349 0 0 1-2.346 2.346h-5.92a2.349 2.349 0 0 1-2.345-2.346v-5.92a2.349 2.349 0 0 1 2.345-2.346h5.92zm1.346 8.265v-5.92c0-.742-.604-1.346-1.346-1.346h-5.92c-.742 0-1.345.604-1.345 1.346v5.92c0 .742.603 1.346 1.345 1.346h5.92c.742 0 1.346-.604 1.346-1.346zM53.748 77.587a.5.5 0 0 1 0 1H38.43a.5.5 0 1 1 0-1h15.318zm8.602 0a.5.5 0 0 1 0 1h-4.752a.5.5 0 0 1 0-1h4.752zm51.969-59.618a.5.5 0 0 1 0-1h27.408a.5.5 0 1 1 0 1h-27.408zm-6.178 2.047a.5.5 0 0 1 0-1h11.305a.5.5 0 0 1 0 1h-11.305z" transform="translate(-31 -15)" fill="#333" shape-rendering="geometricPrecision" fill-rule="evenodd"></path>
</svg>