<svg xmlns="http://www.w3.org/2000/svg" width="78" height="100" viewBox="0 -6.5 78 93.5"><filter id="a"><feGaussianBlur in="SourceGraphic"></feGaussianBlur></filter><path filter="url(#a)" shape-rendering="geometricPrecision" fill="#333" fill-rule="evenodd" d="M77.938 11.922v35.11c0 .578-.26 1.094-.662 1.452.402.358.662.874.662 1.453v35.11A1.955 1.955 0 0 1 75.984 87H18.079a1.955 1.955 0 0 1-1.954-1.953v-24.04c-.051 0-.1.014-.154.014H4.966A4.973 4.973 0 0 1 0 56.054v-1.32c0-1.972 1.164-3.666 2.834-4.467C1.164 49.467 0 47.773 0 45.801v-1.32c0-1.973 1.164-3.666 2.834-4.468C1.164 39.213 0 37.52 0 35.548v-1.322c0-1.972 1.164-3.665 2.834-4.466C1.164 28.96 0 27.266 0 25.294v-1.32a4.973 4.973 0 0 1 4.966-4.967h11.005c.053 0 .103.014.154.015v-7.1c0-1.077.877-1.954 1.954-1.954h3.79V4.966A4.972 4.972 0 0 1 26.835 0h1.32a4.972 4.972 0 0 1 4.967 4.966v5.002h42.862c1.077 0 1.953.877 1.953 1.954zm-1 35.11v-35.11a.955.955 0 0 0-.953-.954H18.079a.955.955 0 0 0-.954.954v7.234c2.182.523 3.813 2.478 3.813 4.817v1.321c0 1.637-.806 3.08-2.032 3.985 2.654.097 4.786 2.271 4.786 4.947v1.322c0 2.25-1.514 4.134-3.572 4.741a4.955 4.955 0 0 1 2.327 4.191v1.321a4.91 4.91 0 0 1-.527 2.183h54.065a.955.955 0 0 0 .953-.953zm0 32.087V49.937a.955.955 0 0 0-.953-.953H21.26a4.948 4.948 0 0 1-2.553 1.612 4.964 4.964 0 0 1 2.23 4.138v1.32c0 2.34-1.63 4.294-3.812 4.818V79.12h59.813zm-9.84-35.693a5.2 5.2 0 0 1-5.193-5.195 5.2 5.2 0 0 1 5.194-5.195 5.2 5.2 0 0 1 5.195 5.195 5.202 5.202 0 0 1-5.195 5.195zM41.516 72.393V54.46H22.448v18.07a13.033 13.033 0 0 1 9.527-4.18c3.627 0 7.098 1.55 9.54 4.195v-.152c-3.302-1.75-6.356-3.043-9.54-3.043a12.025 12.025 0 0 0-9.527 4.735v.255h19.067v-.24c-.33-.436-.69-.847-1.072-1.23zM67.1 32.036a6.202 6.202 0 0 1 6.195 6.195 6.202 6.202 0 0 1-6.195 6.195 6.201 6.201 0 0 1-6.194-6.195 6.201 6.201 0 0 1 6.194-6.195zm9.838 53.011a.955.955 0 0 1-.952.953H18.079a.955.955 0 0 1-.954-.953V80.12h59.813v4.928zM15.971 60.021H4.966A3.971 3.971 0 0 1 1 56.054v-1.32a3.972 3.972 0 0 1 3.966-3.967h11.005a3.971 3.971 0 0 1 3.966 3.967v1.32a3.97 3.97 0 0 1-3.966 3.967zM1 45.801v-1.32a3.972 3.972 0 0 1 3.966-3.968h12.515a3.972 3.972 0 0 1 3.966 3.967v1.321a3.971 3.971 0 0 1-3.966 3.966H4.966A3.971 3.971 0 0 1 1 45.801zm0-10.253v-1.322a3.971 3.971 0 0 1 3.966-3.965h13.76a3.97 3.97 0 0 1 3.966 3.965v1.322a3.97 3.97 0 0 1-3.966 3.965H4.966A3.971 3.971 0 0 1 1 35.548zm0-10.254v-1.32a3.971 3.971 0 0 1 3.966-3.967h11.005a3.97 3.97 0 0 1 3.966 3.966v1.321a3.971 3.971 0 0 1-3.966 3.967H4.966A3.972 3.972 0 0 1 1 25.294zM22.868 4.966A3.97 3.97 0 0 1 26.836 1h1.32a3.971 3.971 0 0 1 3.967 3.966v5.002h-9.255V4.966zm-3.767 49.96a3.564 3.564 0 0 0-3.56-3.56h-2.517a.5.5 0 0 0-.5.5v7.056a.5.5 0 0 0 .5.5h2.489a3.591 3.591 0 0 0 3.588-3.588v-.908zm-1 .908a2.591 2.591 0 0 1-2.588 2.588h-1.99v-6.056h2.019a2.563 2.563 0 0 1 2.559 2.56v.908zm-3.552-6.665h2.489a3.593 3.593 0 0 0 3.588-3.588v-.909a3.564 3.564 0 0 0-3.56-3.56H14.55a.5.5 0 0 0-.5.5v7.057a.5.5 0 0 0 .5.5zm.5-7.057h2.018a2.562 2.562 0 0 1 2.559 2.56v.91a2.592 2.592 0 0 1-2.588 2.587h-1.99v-6.057zm.764-3.197H18.3a3.593 3.593 0 0 0 3.588-3.588v-.909a3.564 3.564 0 0 0-3.56-3.559h-2.517a.5.5 0 0 0-.5.5v7.056a.5.5 0 0 0 .5.5zm.5-7.056h2.016a2.562 2.562 0 0 1 2.56 2.56v.908a2.592 2.592 0 0 1-2.588 2.588h-1.988V31.86zm-3.289-3.198h2.489a3.593 3.593 0 0 0 3.588-3.587v-.909a3.564 3.564 0 0 0-3.559-3.56h-2.518a.5.5 0 0 0-.5.5v7.056a.5.5 0 0 0 .5.5zm.5-7.056h2.018a2.562 2.562 0 0 1 2.559 2.56v.909a2.592 2.592 0 0 1-2.588 2.587h-1.989v-6.056zm28.49 31.855a.5.5 0 0 1 .5.5v20.88a.5.5 0 0 1-.5.5H21.949a.499.499 0 0 1-.5-.5V53.96c0-.277.223-.5.5-.5h20.067zm-10.04 13.302a5.324 5.324 0 0 1-5.316-5.318 5.323 5.323 0 0 1 5.317-5.317 5.324 5.324 0 0 1 5.318 5.317 5.324 5.324 0 0 1-5.318 5.318zm0-9.635a4.322 4.322 0 0 0-4.316 4.317 4.323 4.323 0 0 0 4.317 4.318 4.323 4.323 0 0 0 4.318-4.318 4.322 4.322 0 0 0-4.318-4.317zm17.962-40.345a.5.5 0 0 1 0 1h-22.44a.5.5 0 1 1 0-1h22.44zm-22.44 5.27a.5.5 0 0 1 0-1h9.117a.5.5 0 1 1 0 1h-9.118zm22.44 4.696a.5.5 0 0 1 0 1h-22.44a.5.5 0 1 1 0-1h22.44zm-14.848 4.475a.5.5 0 0 1 0 1h-7.593a.5.5 0 0 1 0-1h7.593zm35.231 22.236a.5.5 0 0 1 0 1H48.556a.5.5 0 0 1 0-1H70.32zm-21.762 5.509a.5.5 0 0 1 0-1h8.746a.5.5 0 0 1 0 1h-8.746zm21.762 4.931a.5.5 0 0 1 0 1H48.556a.5.5 0 0 1 0-1H70.32z"></path></svg>