<svg width="77" height="100" viewBox="0 -4 77 94" xmlns="http://www.w3.org/2000/svg"><filter id="a"><feGaussianBlur in="SourceGraphic"></feGaussianBlur></filter><path shape-rendering="geometricPrecision" filter="url(#a)" fill="#333" fill-rule="evenodd" d="M67.755 78.206a2.743 2.743 0 0 1-2.74 2.74H11.272a2.743 2.743 0 0 1-2.739-2.74v-8.768a4.96 4.96 0 0 1 3.838-4.847l11.955-2.812-.073-.161a.498.498 0 0 1 .04-.484l1.52-2.281a1.616 1.616 0 0 1 1.146-.71c.205-.024.411-.004.608.048V55.24c0-.005.003-.01.003-.014l-.625-.47a7.193 7.193 0 0 1-2.88-5.446l-.038-.838c-.013 0-.025.004-.037.004a1.842 1.842 0 0 1-1.79-1.4l-1.265-5.055a2.8 2.8 0 0 1 .512-2.417c.073-.093.162-.167.244-.25-.35-2.081-.977-3.623-1.815-4.46a.5.5 0 0 1-.14-.28c-.014-.091-.322-2.25.155-5.13a.504.504 0 0 1 .088-.204 14.95 14.95 0 0 1-1.637-.787.5.5 0 1 1 .495-.87c.5.286 1.087.565 1.744.829a.5.5 0 0 1 .278.65c-.023.058-.07.092-.11.135a.49.49 0 0 1 .128.412c-.38 2.294-.229 4.136-.17 4.666.87.942 1.501 2.434 1.886 4.43.338-.14.7-.226 1.077-.226h.369c.026-.018.047-.043.076-.058l-.008-.22c-.099-2.055-.253-5.336 1.805-7.297a.497.497 0 0 1 .351-.915c.63.12 1.281.23 1.953.33a.5.5 0 1 1-.147.989c-.298-.044-.576-.098-.866-.147-2.355 1.519-2.197 4.934-2.097 6.994l.007.189h.016c.072-.328.198-.642.373-.931a.65.65 0 1 1 1.111.679 1.738 1.738 0 0 0-.253.903.65.65 0 0 1-.65.65h-1.302a.609.609 0 0 1-.402-.166h-.335c-.565 0-1.088.255-1.435.7a1.806 1.806 0 0 0-.33 1.56l1.263 5.056a.845.845 0 0 0 1.661-.101.494.494 0 0 1 .558-.434.5.5 0 0 1 .434.559 1.84 1.84 0 0 1-.809 1.299l.051 1.107a6.194 6.194 0 0 0 2.48 4.69l4.63 3.473a6.25 6.25 0 0 0 3.73 1.244h4.48a6.252 6.252 0 0 0 3.73-1.244l4.63-3.472a6.195 6.195 0 0 0 2.48-4.691l.05-1.107a1.841 1.841 0 0 1-.808-1.3.5.5 0 0 1 .434-.558.495.495 0 0 1 .558.434.848.848 0 0 0 .84.742.843.843 0 0 0 .82-.641l1.265-5.056a1.809 1.809 0 0 0-.33-1.561 1.81 1.81 0 0 0-1.435-.7c-.006 0-.01-.004-.017-.004h-.312a.612.612 0 0 1-.408.17H50.58a.65.65 0 0 1-.65-.65c0-.318-.088-.631-.253-.902a.651.651 0 0 1 1.11-.68c.104.172.184.353.253.539-.105-1.868-.463-4.786-3.185-6.598-.556.08-1.118.157-1.699.224l-.057.002a.5.5 0 0 1-.056-.997 55.743 55.743 0 0 0 1.966-.257.49.49 0 0 1 .518.28c3.271 2.264 3.452 5.954 3.535 7.755.001.008.004.013.004.02.06.019.101.063.152.094h.401c.016 0 .03.008.046.009.278.006.545.06.803.143.351-1.706 1.02-3.167 2.024-4.324.02-.566.047-2.458-.229-4.67-.376.136-.765.267-1.174.392a.499.499 0 0 1-.291-.957 23.075 23.075 0 0 0 1.848-.644.503.503 0 0 1 .651.279.494.494 0 0 1-.08.494c.39 2.867.273 5.23.268 5.33a.511.511 0 0 1-.13.31c-1.005 1.106-1.66 2.545-1.969 4.265.166.135.32.289.455.463.538.688.725 1.569.513 2.417l-1.264 5.056a1.843 1.843 0 0 1-1.79 1.399c-.014 0-.025-.003-.038-.004l-.038.838a7.193 7.193 0 0 1-2.88 5.447l-.625.469c0 .005.003.009.003.014v2.95c.196-.05.402-.071.608-.046.467.058.885.317 1.146.709l1.521 2.28a.498.498 0 0 1 .04.485l-.074.16 11.955 2.813a4.962 4.962 0 0 1 3.838 4.847v8.768zM63.441 0h9.77a3.107 3.107 0 0 1 3.103 3.103v9.77a.5.5 0 0 1-1 0v-9.77C75.314 1.943 74.37 1 73.21 1h-9.77a.5.5 0 1 1 0-1zm12.373 73.664a.5.5 0 0 1 .5.5v9.771a3.106 3.106 0 0 1-3.103 3.102h-9.77a.5.5 0 1 1 0-1h9.77c1.16 0 2.103-.943 2.103-2.102v-9.771a.5.5 0 0 1 .5-.5zM.5 13.373a.5.5 0 0 1-.5-.5v-9.77A3.107 3.107 0 0 1 3.103 0h9.77a.5.5 0 0 1 0 1h-9.77C1.943 1 1 1.943 1 3.103v9.77a.5.5 0 0 1-.5.5zm12.373 72.664a.5.5 0 0 1 0 1h-9.77A3.107 3.107 0 0 1 0 83.934v-9.77a.5.5 0 0 1 1 0v9.77c0 1.16.943 2.103 2.103 2.103h9.77zm25.271-32.016c-2.37 0-3.451-.892-4.437-1.884a.5.5 0 1 1 .71-.705c.894.901 1.735 1.59 3.727 1.59 1.992 0 2.833-.689 3.728-1.59a.5.5 0 1 1 .709.705c-.986.992-2.067 1.884-4.437 1.884zM26.367 42.007c.008.381.062.759.164 1.125a.65.65 0 1 1-1.253.348 5.9 5.9 0 0 1-.191-1.047l-.826-.413a.651.651 0 0 1 .582-1.164l1.164.582a.653.653 0 0 1 .36.569zm2.495 5.418a5.929 5.929 0 0 1-2.26-1.546.65.65 0 1 1 .964-.874 4.642 4.642 0 0 0 1.76 1.205.65.65 0 1 1-.464 1.215zm2.646.37a.65.65 0 0 1-.05-1.3c.769-.06 1.462-.267 2.059-.614a.652.652 0 0 1 .654 1.126c-.768.446-1.646.71-2.611.785a.453.453 0 0 1-.052.003zm6.173-7.365a.649.649 0 0 1-.881.268.65.65 0 0 1-.268-.881c.305-.57.952-.954 1.612-.954.62 0 1.234.338 1.56.863a.65.65 0 1 1-1.103.689.588.588 0 0 0-.457-.251.582.582 0 0 0-.463.266zm-.899 1.469a.652.652 0 0 1 .44.808c-.27.921-.636 1.73-1.083 2.407a.652.652 0 1 1-1.086-.719c.377-.568.687-1.259.921-2.056.1-.345.46-.535.808-.44zm3.331 3.158c-.44-.679-.799-1.492-1.065-2.415a.652.652 0 0 1 1.251-.36c.23.8.535 1.495.904 2.066a.65.65 0 1 1-1.09.71zm8.575-.012a.652.652 0 0 1 .953.887 5.965 5.965 0 0 1-2.277 1.519.647.647 0 0 1-.837-.384.65.65 0 0 1 .384-.836 4.641 4.641 0 0 0 1.777-1.186zm-3.97 2.745a.544.544 0 0 1-.057-.003c-.964-.083-1.84-.358-2.603-.815a.65.65 0 1 1 .668-1.116 4.763 4.763 0 0 0 2.047.635.65.65 0 0 1-.055 1.299zm5.494-3.856a.652.652 0 0 1-.455-.801c.102-.371.157-.75.165-1.126a.653.653 0 0 1 .36-.57l1.164-.581a.65.65 0 1 1 .582 1.164l-.826.413a6.061 6.061 0 0 1-.189 1.046.653.653 0 0 1-.8.455zm-1.556-7.905a.652.652 0 0 1-.206 1.285 1.62 1.62 0 0 0-.263-.02h-1.709a.65.65 0 1 1 0-1.301h1.71c.158 0 .314.011.468.035zm-6.33-.036h2.077a.651.651 0 0 1 0 1.3h-2.077a.65.65 0 1 1 0-1.3zm-5.33.943c.048.05.094.103.137.159a3.557 3.557 0 0 1 1.002-.146h.019c.338 0 .673.049 1 .146a2.57 2.57 0 0 1 .137-.158 3 3 0 0 1 .689-.541.647.647 0 0 1 .888.237.65.65 0 0 1-.237.889c-.148.085-.28.189-.393.309a1.691 1.691 0 0 0-.25.362.652.652 0 0 1-.844.283 2.408 2.408 0 0 0-.992-.226l-.007-.001h-.008a2.393 2.393 0 0 0-.991.227.65.65 0 0 1-.845-.283 1.791 1.791 0 0 0-.252-.366 1.758 1.758 0 0 0-.39-.304.649.649 0 0 1-.24-.888.647.647 0 0 1 .888-.24c.257.147.489.329.69.54zm-5.765-.292a.65.65 0 0 1 .65-.651h2.077a.65.65 0 1 1 0 1.302h-2.076a.65.65 0 0 1-.651-.651zm-.776 0a.65.65 0 0 1-.65.65H28.1a1.77 1.77 0 0 0-.275.022.652.652 0 0 1-.19-1.288c.152-.022.307-.035.465-.035h1.704a.65.65 0 0 1 .651.65zm27.223 40.7v2.602h7.337c.96 0 1.74-.781 1.74-1.74v-8.768c0-.206-.022-.407-.052-.605-.012-.083-.032-.163-.05-.245a4.426 4.426 0 0 0-.183-.612c-.034-.085-.074-.168-.113-.251-.046-.097-.09-.196-.145-.29-.004-.006-.009-.012-.013-.02l-6.83 6.136a5.107 5.107 0 0 0-1.69 3.793zm-1 0c0-1.73.737-3.383 2.023-4.537l6.88-6.181a3.96 3.96 0 0 0-1.894-1.062L51.54 62.706l-4.313 9.49c-.25.549-.73.943-1.319 1.079a1.935 1.935 0 0 1-1.679-.397 43.79 43.79 0 0 0-2.86-2.166 1.745 1.745 0 0 1-.542.847l.583 8.387h1.832v-.62c0-.893.727-1.62 1.62-1.62H52.7c.893 0 1.62.727 1.62 1.62v.62h2.36v-2.602zm-3.359 2.602v-.62a.62.62 0 0 0-.62-.62h-7.837a.62.62 0 0 0-.62.62v.62h9.077zm-12.876-9.71v-.15a32.539 32.539 0 0 0-2.299-1.39 32.78 32.78 0 0 0-2.299 1.39v.15c0 .416.337.753.751.753h3.095a.752.752 0 0 0 .752-.752zm-4.562 9.71h4.526l-.554-7.974c-.054.005-.106.017-.162.017h-3.095c-.055 0-.107-.012-.16-.017l-.555 7.974zm-1.003 0l.583-8.387a1.74 1.74 0 0 1-.542-.847 43.79 43.79 0 0 0-2.86 2.166 1.935 1.935 0 0 1-1.679.397 1.913 1.913 0 0 1-1.319-1.078l-4.313-9.491L12.6 65.564a3.965 3.965 0 0 0-1.894 1.062l6.881 6.18a6.107 6.107 0 0 1 2.023 4.538v2.602h15.268zm-16.268 0v-2.602a5.107 5.107 0 0 0-1.69-3.793l-6.83-6.135-.014.02c-.055.094-.1.192-.146.29-.039.083-.078.165-.112.25a4.08 4.08 0 0 0-.184.612c-.018.08-.037.163-.05.245-.03.198-.05.399-.05.605v8.768c0 .959.78 1.74 1.738 1.74h7.338zm8.035-20.538l-1.366 2.049 4.692 10.326a.92.92 0 0 0 .634.517.948.948 0 0 0 .818-.193c2.597-2.141 4.816-3.49 5.86-4.08l-9.708-8.736v-.001a.623.623 0 0 0-.93.118zm1.922-3.434v2.864l9.577 8.618 9.577-8.618v-2.864l-3.007 2.255a7.27 7.27 0 0 1-4.33 1.443h-4.48a7.27 7.27 0 0 1-4.33-1.443l-3.007-2.255zm20.146 3.316l-9.708 8.738c1.044.589 3.263 1.938 5.86 4.079.23.189.531.26.818.193a.92.92 0 0 0 .634-.517l4.692-10.326-1.366-2.05a.618.618 0 0 0-.93-.118zm1.383-45.632a.5.5 0 0 1 .942-.336c.224.63.436 1.274.634 1.923a.5.5 0 0 1-.956.293 44.481 44.481 0 0 0-.62-1.88zm1.166 3.787a.5.5 0 0 1 .354-.612.506.506 0 0 1 .612.354c.176.66.338 1.308.486 1.937.049-.21.206-.367.435-.367.233 0 .519.162.57.388.153.66.289 1.294.408 1.888a.5.5 0 0 1-.98.197 68.95 68.95 0 0 0-.365-1.704c-.037-.05-.045-.116-.06-.177a.499.499 0 0 1-.977.023 66.212 66.212 0 0 0-.483-1.927zm-1.878-5.624a21.114 21.114 0 0 0-.842-1.763.5.5 0 1 1 .88-.476c.298.55.594 1.171.882 1.848a.5.5 0 0 1-.92.391zm-3.2-4.536a.5.5 0 1 1 .441-.896c.566.278 1.126.763 1.664 1.441a.5.5 0 1 1-.783.621c-.445-.56-.89-.953-1.322-1.166zM27.414 9.55a.501.501 0 0 1-.163-.69c.423-.683.858-1.247 1.293-1.674a.498.498 0 0 1 .707.007.502.502 0 0 1-.007.708c-.377.37-.761.87-1.142 1.486a.499.499 0 0 1-.688.163zm7.064-2.04a.5.5 0 0 1 .201-.98l.5.104c.502.105.99.206 1.449.288a.5.5 0 1 1-.175.984c-.468-.083-.967-.187-1.478-.293l-.497-.103zm-8.689 5.695a.501.501 0 0 1-.29-.645c.259-.676.523-1.308.788-1.878a.499.499 0 1 1 .907.419 28.43 28.43 0 0 0-.76 1.814.5.5 0 0 1-.645.29zm16.677-5.84a.5.5 0 0 1-.092-.992c.828-.157 1.476-.247 2.04-.284a.5.5 0 0 1 .066.998c-.523.034-1.133.12-1.921.268a.488.488 0 0 1-.093.01zm-17.876 9.66a.5.5 0 0 1-.345-.617c.182-.646.377-1.295.585-1.936a.5.5 0 0 1 .951.309 52.247 52.247 0 0 0-.574 1.898.5.5 0 0 1-.617.346zm6.088-9.922a.5.5 0 1 1-.125-.992c.602-.077 1.275-.049 2.122.063a.5.5 0 0 1-.131.992c-.755-.1-1.34-.127-1.866-.063zm7.851.971a.5.5 0 0 1-.037-.999c.58-.043 1.292-.178 1.914-.304a.5.5 0 1 1 .198.981c-.684.138-1.406.273-2.037.321l-.038.001zm-16.764 17.39a.493.493 0 0 1-.24-.438c.018-.43.107-1.157.25-2.044a.493.493 0 0 1 .575-.413.5.5 0 0 1 .413.573 25.352 25.352 0 0 0-.202 1.474h1.56a.499.499 0 1 1 0 1h-2a.494.494 0 0 1-.308-.117c-.003-.001-.006-.005-.01-.006-.012-.01-.027-.017-.038-.028zm10.884-6.205a.5.5 0 0 1 .5-.5h2a.5.5 0 0 1 0 1h-2a.5.5 0 0 1-.5-.5zm19 0a.5.5 0 0 1-.5.5h-2a.5.5 0 0 1 0-1h2a.5.5 0 0 1 .5.5zm-11 0a.5.5 0 0 1 .5-.5h2a.5.5 0 0 1 0 1h-2a.5.5 0 0 1-.5-.5zm-15.5.5a.5.5 0 0 1 0-1h2a.5.5 0 0 1 0 1h-2zm11.5-.5a.5.5 0 0 1 .5-.5h2a.5.5 0 0 1 0 1h-2a.5.5 0 0 1-.5-.5zM22.53 21.583a.5.5 0 0 1-.392-.589c.117-.583.25-1.204.4-1.849a.5.5 0 0 1 .486-.387h.124c.183 0 .336.103.423.25l.157-.65a.5.5 0 0 1 .971.239l-.188.776a.499.499 0 0 1-.6.371.492.492 0 0 1-.322-.253.508.508 0 0 1-.144.168c-.12.532-.229 1.045-.327 1.532a.5.5 0 0 1-.588.392zM53.5 23.18a.499.499 0 0 1 .414-.572.495.495 0 0 1 .573.414c.103.637.175 1.178.214 1.593h1.42a.499.499 0 1 1 0 1h-2a.5.5 0 0 1-.5-.5c0-.105.04-.197.095-.278a22.454 22.454 0 0 0-.216-1.657zm-8.852-3.922a.5.5 0 0 1 .5-.5h2a.5.5 0 0 1 0 1h-2a.5.5 0 0 1-.5-.5zm-13.5-.5a.5.5 0 0 1 0 1h-2a.5.5 0 0 1 0-1h2zm26.973 6.856a.5.5 0 0 1 0-1h1.969a.5.5 0 0 1 .5.5.514.514 0 0 1-.5.516.543.543 0 0 1-.129-.016h-1.84zm-12-1h2a.5.5 0 0 1 0 1h-2a.5.5 0 0 1 0-1zm6 0a.5.5 0 0 1 0 1h-2a.5.5 0 0 1 0-1h2zm-35.13 2.755a.498.498 0 0 1-.36-.153c-.64-.664-.965-1.37-.965-2.102a.5.5 0 0 1 1 0c0 .463.23.937.685 1.408a.5.5 0 0 1-.36.847zm40.648 1.206a.5.5 0 0 1-.247-.936c.625-.353 1.127-.72 1.493-1.095a.499.499 0 1 1 .714.7c-.43.44-1.007.866-1.714 1.267a.51.51 0 0 1-.246.064zm-39.518-2.96a.5.5 0 0 1 0-1h2a.5.5 0 0 1 0 1h-2zm33.773 4.006a.5.5 0 0 1 .232.973c-.632.151-1.291.292-1.979.422a.496.496 0 0 1-.584-.397.5.5 0 0 1 .398-.585 42.219 42.219 0 0 0 1.933-.413zm-13.773-4.007a.5.5 0 0 1 0-1h2a.5.5 0 0 1 0 1h-2zm-12 0a.5.5 0 0 1 0-1h2a.5.5 0 0 1 0 1h-2zm15.99 6.337a.5.5 0 0 1-.027-.999 67.049 67.049 0 0 0 1.981-.136.495.495 0 0 1 .54.456.499.499 0 0 1-.457.54 62.85 62.85 0 0 1-2.01.138l-.028.001zm-12.49-6.837a.5.5 0 0 1 .5-.5h2a.5.5 0 0 1 0 1h-2a.5.5 0 0 1-.5-.5zm12.5.5a.5.5 0 0 1 0-1h2a.5.5 0 0 1 0 1h-2zm-10.004 6.198c-.014 0-.028 0-.042-.002a68.558 68.558 0 0 1-2.006-.197.5.5 0 1 1 .113-.994c.645.075 1.304.139 1.976.195a.5.5 0 0 1-.041.998zm-7.787-2.2a.501.501 0 0 1-.233.973 33.263 33.263 0 0 1-1.96-.532.5.5 0 0 1 .292-.957c.598.183 1.233.356 1.901.516zm11.791-3.998h-2a.5.5 0 0 1 0-1h2a.5.5 0 0 1 0 1zm2.007 6.443a.507.507 0 0 1-.508-.5c0-.276.215-.5.49-.5h.018c.664 0 1.32-.01 1.97-.026a.5.5 0 0 1 .027 1c-.658.017-1.324.026-1.997.026zm-4.043-.109a.501.501 0 0 1-.473-.525.496.496 0 0 1 .527-.473c.652.034 1.315.061 1.986.08a.501.501 0 0 1-.014 1h-.014a76.282 76.282 0 0 1-2.012-.082z"></path></svg>