<svg width="102" height="100" viewBox="0 -3 102 64" xmlns="http://www.w3.org/2000/svg" data-v-3730492c=""><filter id="a"><feGaussianBlur in="SourceGraphic"></feGaussianBlur></filter><path filter="url(#a)" shape-rendering="geometricPrecision" d="M117.667 76.834c0 2.48-2.019 4.5-4.5 4.5H22.5a4.505 4.505 0 0 1-4.5-4.5V21.5a4.505 4.505 0 0 1 4.5-4.5h90.667c2.481 0 4.5 2.018 4.5 4.5v55.334zm-4.5-60.835c3.033 0 5.5 2.469 5.5 5.501v55.334c0 3.032-2.467 5.5-5.5 5.5H22.5a5.506 5.506 0 0 1-5.5-5.5V21.5a5.507 5.507 0 0 1 5.5-5.5h90.667zm-3.023 18.556H71.442a.5.5 0 0 0 0 1h38.702a.5.5 0 0 0 0-1zm0 9.64H71.442a.5.5 0 0 0 0 1h38.702a.5.5 0 0 0 0-1zm0 9.641H71.442a.5.5 0 0 0 0 1h38.702a.5.5 0 0 0 0-1zm-31.645 9.78h-7.057a.5.5 0 0 0 0 1h7.057a.5.5 0 0 0 0-1zm15.822 0h-7.057a.5.5 0 0 0 0 1h7.057a.5.5 0 0 0 0-1zm15.823 0h-7.058a.5.5 0 0 0 0 1h7.058a.5.5 0 0 0 0-1zm-65.27-35.073c-11.58 0-21.002 9.42-21.002 21s9.422 21 21.002 21c11.58 0 21-9.42 21-21s-9.42-21-21-21zm0 41c-11.03 0-20.002-8.971-20.002-20 0-11.028 8.972-20 20.002-20 11.027 0 20 8.972 20 20 0 11.029-8.972 20-20 20zM44.9 33.89c-7.493 0-13.766 5.303-15.275 12.352-.005.02-.012.036-.015.056a15.658 15.658 0 0 0-.336 3.22c0 8.615 7.009 15.625 15.626 15.625 8.617 0 15.626-7.01 15.626-15.626 0-8.617-7.01-15.627-15.626-15.627zm-20.022 2.672a.5.5 0 0 0 .693-.142 22.166 22.166 0 0 1 6.925-6.662.5.5 0 1 0-.52-.854 23.186 23.186 0 0 0-7.24 6.964.5.5 0 0 0 .142.694zm8.86-7.567a.49.49 0 0 0 .225-.054 21.783 21.783 0 0 1 5.552-1.927.5.5 0 0 0-.197-.98 22.812 22.812 0 0 0-5.807 2.015.5.5 0 0 0 .227.946zM44.9 44.586c-.005 0-.01.003-.013.003-.005 0-.01-.003-.013-.003-5.907 0-10.18.346-14.083 1.135 1.678-6.228 7.359-10.83 14.109-10.83 6.752 0 12.434 4.605 14.11 10.835-3.911-.792-8.19-1.14-14.11-1.14zm14.626 4.931a14.56 14.56 0 0 1-.575 4.022.501.501 0 0 0-.194-.039H53.13a4.279 4.279 0 0 0-4.274 4.273v5.578c0 .08.023.152.056.22a14.557 14.557 0 0 1-4.012.572c-1.401 0-2.752-.209-4.035-.579a.492.492 0 0 0 .052-.213v-5.578a4.278 4.278 0 0 0-4.273-4.273h-5.628a.492.492 0 0 0-.168.033 14.554 14.554 0 0 1-.574-4.016c0-.932.096-1.84.264-2.725 3.957-.842 8.27-1.206 14.336-1.206.004 0 .008-.003.013-.003.004 0 .008.003.013.003 6.079 0 10.398.366 14.363 1.212.167.882.263 1.79.263 2.72zm-9.67 13.743v-5.487A3.277 3.277 0 0 1 53.13 54.5h5.504a14.677 14.677 0 0 1-8.778 8.76zm-9.94-.01a14.675 14.675 0 0 1-8.75-8.75h5.478a3.277 3.277 0 0 1 3.273 3.273v5.477zm1.938-12.575a3.024 3.024 0 0 0 3.02 3.02 3.024 3.024 0 0 0 3.02-3.02 3.024 3.024 0 0 0-3.02-3.02 3.024 3.024 0 0 0-3.02 3.02zm5.04 0c0 1.114-.907 2.02-2.02 2.02a2.022 2.022 0 0 1-2.02-2.02c0-1.114.906-2.02 2.02-2.02 1.113 0 2.02.906 2.02 2.02zm15.08-29.622h17.334a.5.5 0 0 0 0-1H61.975a.5.5 0 0 0 0 1zm20.5 0h5.334a.5.5 0 0 0 0-1h-5.333a.5.5 0 0 0 0 1z" transform="translate(-17 -16)" fill="#333" fill-rule="evenodd"></path></svg>