<svg data-v-e65a6880="" width="102" height="100" viewBox="0 -3 102 64" xmlns="http://www.w3.org/2000/svg" data-v-3730492c=""><filter id="a"><feGaussianBlur in="SourceGraphic"></feGaussianBlur></filter><path filter="url(#a)" shape-rendering="geometricPrecision" d="M117.667 75.834c0 2.481-2.019 4.5-4.5 4.5H22.5a4.505 4.505 0 0 1-4.5-4.5V20.501A4.505 4.505 0 0 1 22.5 16h90.667c2.481 0 4.5 2.019 4.5 4.501v55.333zM113.167 15c3.033 0 5.5 2.468 5.5 5.501v55.333c0 3.033-2.467 5.5-5.5 5.5H22.5a5.506 5.506 0 0 1-5.5-5.5V20.501A5.507 5.507 0 0 1 22.5 15h90.667zM44.874 27.516c-11.58 0-21.002 9.42-21.002 21s9.422 21.002 21.002 21.002c11.58 0 21-9.421 21-21.001 0-11.58-9.42-21.001-21-21.001zm0 41.002c-11.03 0-20.002-8.972-20.002-20.001 0-11.03 8.972-20.001 20.002-20.001 11.029 0 20 8.972 20 20 0 11.03-8.971 20.002-20 20.002zm0-37.485c-9.641 0-17.484 7.843-17.484 17.484 0 3.843 1.261 7.389 3.371 10.278a.48.48 0 0 0 .16.224c.003.003.007.002.01.004C34.126 63.25 39.179 66 44.874 66c5.697 0 10.751-2.751 13.945-6.98l.007-.004a.477.477 0 0 0 .157-.216c2.113-2.89 3.376-6.438 3.376-10.284 0-9.641-7.843-17.484-17.485-17.484zm0 33.968c-5.288 0-9.99-2.513-13.009-6.396 3.112-3.994 7.942-6.371 13.009-6.371s9.897 2.378 13.009 6.37c-3.019 3.884-7.72 6.397-13.009 6.397zm13.629-7.225c-3.305-4.106-8.345-6.542-13.629-6.542-5.284 0-10.324 2.437-13.629 6.542a16.388 16.388 0 0 1-2.855-9.26c0-9.088 7.395-16.483 16.484-16.483 9.09 0 16.485 7.395 16.485 16.484a16.39 16.39 0 0 1-2.856 9.259zM44.874 34.588a7.069 7.069 0 0 0-7.06 7.06 7.068 7.068 0 0 0 7.06 7.062 7.069 7.069 0 0 0 7.061-7.061c0-3.893-3.168-7.061-7.06-7.061zm0 13.122a6.068 6.068 0 0 1-6.06-6.061 6.068 6.068 0 0 1 6.06-6.061 6.068 6.068 0 0 1 6.061 6.06 6.068 6.068 0 0 1-6.06 6.062zm65.27-14.154H71.442a.5.5 0 0 0 0 1h38.702a.5.5 0 0 0 0-1zm0 9.64H71.442a.5.5 0 0 0 0 1h38.702a.5.5 0 0 0 0-1zm0 9.64H71.442a.5.5 0 0 0 0 1h38.702a.5.5 0 0 0 0-1zm-31.645 9.78h-7.056a.5.5 0 0 0 0 1h7.056a.5.5 0 0 0 0-1zm15.822 0h-7.057a.5.5 0 0 0 0 1h7.057a.5.5 0 0 0 0-1zm15.823 0h-7.058a.5.5 0 0 0 0 1h7.058a.5.5 0 0 0 0-1zM46.854 19.97h45.5a.5.5 0 0 0 0-1h-45.5a.5.5 0 0 0 0 1zm26.166 3.167a.5.5 0 0 0 0 1h11.666a.5.5 0 1 0 0-1H73.02zm-17.833 53.5h-29.5a.5.5 0 0 0 0 1h29.5a.5.5 0 0 0 0-1z" transform="translate(-17 -15)" fill="#333" fill-rule="evenodd"></path></svg>