<svg data-v-e65a6880="" width="100" height="100" viewBox="-13 -6.5 100 93.5" xmlns="http://www.w3.org/2000/svg" data-v-3730492c=""><filter id="a"><feGaussianBlur in="SourceGraphic"></feGaussianBlur></filter><path filter="url(#a)" shape-rendering="geometricPrecision" d="M120.576 26.934l-3.036 8.341-14.155-5.152V13.251l13.021 4.74a6.934 6.934 0 0 1 3.938 3.608c.393.844.611 1.74.65 2.644a6.952 6.952 0 0 1-.418 2.691zm-4.305 11.828l-12.886-4.69v-2.885l13.813 5.028-.927 2.547zm-12.886 35.405V35.136l12.544 4.566-12.544 34.465zm-1 9.854A6.986 6.986 0 0 1 95.407 91h-48.19V6h48.19c3.675 0 6.689 2.858 6.952 6.468-.003.027-.013.054-.012.08.001.029.014.055.02.083.006.116.018.231.018.348v71.042zM46.217 91h-6.978A3.242 3.242 0 0 1 36 87.762V9.24A3.244 3.244 0 0 1 39.239 6h6.978v85zm75.033-69.824c.45.966.699 1.99.744 3.024a7.96 7.96 0 0 1-.479 3.077l-3.206 8.81-1.269 3.488-.003.004-13.652 37.511v6.931c0 4.4-3.579 7.979-7.978 7.979H39.239A4.243 4.243 0 0 1 35 87.762V9.24A4.244 4.244 0 0 1 39.239 5h56.168c4.127 0 7.531 3.15 7.937 7.172l13.404 4.878a7.929 7.929 0 0 1 4.502 4.126zM58.385 71.435h34.624a.5.5 0 0 0 0-1H58.385a.5.5 0 0 0 0 1zm1.873 2.144h-2.26v3.831h.867v-.853h1.392c.9 0 1.58-.574 1.58-1.475 0-.9-.68-1.503-1.58-1.503zm-.036 2.19h-1.358v-1.4h1.358c.444 0 .748.27.748.713 0 .444-.304.686-.748.686zm3.455-2.19l-1.67 3.831h.929l.249-.582h2.362l.25.582h.914l-1.627-3.83h-1.407zm-.173 2.494l.713-1.725h.298l.693 1.725h-1.704zm6.253-.963l-1.15-.132c-.298-.034-.5-.09-.5-.31 0-.216.18-.41.929-.41.61 0 1.067.124 1.517.436l.416-.637c-.596-.443-1.22-.568-1.933-.568-.976 0-1.78.374-1.78 1.184 0 .714.478 1.02 1.26 1.11l1.289.144c.326.035.437.14.437.347 0 .325-.443.478-1.053.478-.631 0-1.143-.166-1.67-.534l-.408.672c.609.45 1.198.616 1.98.616 1.15 0 1.989-.387 1.989-1.247 0-.706-.506-1.052-1.323-1.149zm4.431 0l-1.15-.132c-.298-.034-.499-.09-.499-.31 0-.216.18-.41.928-.41.61 0 1.067.124 1.517.436l.416-.637c-.596-.443-1.219-.568-1.933-.568-.976 0-1.78.374-1.78 1.184 0 .714.478 1.02 1.261 1.11l1.288.144c.326.035.437.14.437.347 0 .325-.444.478-1.053.478-.63 0-1.143-.166-1.67-.534l-.408.672c.61.45 1.198.616 1.981.616 1.15 0 1.988-.387 1.988-1.247 0-.706-.506-1.052-1.323-1.149zm4.196-1.53h-2.259v3.83h.866v-.853h1.393c.9 0 1.58-.574 1.58-1.475 0-.9-.68-1.503-1.58-1.503zm-.035 2.188h-1.358V74.37h1.358c.443 0 .748.27.748.713 0 .444-.305.686-.748.686zm4.293-2.279c-1.164 0-2.148.803-2.148 2.008 0 1.206.984 2.01 2.148 2.01 1.164 0 2.147-.804 2.147-2.01 0-1.205-.983-2.008-2.147-2.008zm0 3.276c-.721 0-1.281-.477-1.281-1.268 0-.79.56-1.267 1.28-1.267.722 0 1.282.477 1.282 1.267 0 .791-.56 1.268-1.281 1.268zm6.62-1.683c0-.9-.68-1.503-1.58-1.503h-2.258v3.831h.866v-.853h1.427l.45.853h.943l-.59-1.053c.45-.243.742-.687.742-1.275zm-1.614.686H86.29V74.37h1.358c.443 0 .748.27.748.713 0 .444-.305.686-.748.686zm1.903-1.413h1.56v3.055h.865v-3.055h1.558v-.776h-3.983v.776zm16.78-15.062a.5.5 0 0 0 .641-.299l6.019-16.538a.5.5 0 1 0-.94-.342l-6.02 16.538a.499.499 0 0 0 .3.641zm-67.5-49.168a.5.5 0 0 0-.5.5v31.94a.5.5 0 1 0 1 0v-31.94a.5.5 0 0 0-.5-.5zm0 36.616a.5.5 0 0 0-.5.5v5.607a.5.5 0 0 0 1 0v-5.607a.5.5 0 0 0-.5-.5zm35.93-26.784c-10.596 0-19.216 8.62-19.216 19.216 0 10.596 8.62 19.216 19.216 19.216 10.596 0 19.216-8.62 19.216-19.216 0-10.596-8.62-19.216-19.216-19.216zm0 37.432c-10.045 0-18.216-8.171-18.216-18.216 0-10.044 8.17-18.216 18.216-18.216 10.044 0 18.216 8.172 18.216 18.216 0 10.045-8.172 18.216-18.216 18.216zm0-33.678c-8.526 0-15.463 6.936-15.463 15.462 0 8.527 6.937 15.463 15.463 15.463S90.223 47.7 90.223 39.173c0-8.526-6.936-15.462-15.462-15.462zm0 29.925c-7.975 0-14.463-6.488-14.463-14.463 0-7.974 6.488-14.462 14.463-14.462 7.975 0 14.462 6.488 14.462 14.462 0 7.975-6.487 14.463-14.462 14.463z" transform="translate(-35 -5)" fill="#333" fill-rule="evenodd"></path></svg>