<?xml version="1.0"?>
<svg xmlns="http://www.w3.org/2000/svg" xmlns:xlink="http://www.w3.org/1999/xlink" xmlns:svgjs="http://svgjs.com/svgjs" version="1.1" width="512" height="512" x="0" y="0" viewBox="0 0 512 512" style="enable-background:new 0 0 512 512" xml:space="preserve" class=""><g><g xmlns="http://www.w3.org/2000/svg"><path d="m409.094 100.96c-9.694-30.413-37.934-51.26-70.261-51.26-6.966 0-13.817.97-20.451 2.889-16.983-32.16-50.509-52.589-87.231-52.589-49.099 0-90.292 36.112-97.496 83.742-3.348-.604-6.752-.909-10.188-.909-31.54 0-57.2 25.66-57.2 57.2s25.66 57.2 57.2 57.2h42.514c3.825 46.314 42.735 82.833 90.019 82.833s86.194-36.519 90.019-82.833h50.797c26.973 0 48.917-21.944 48.917-48.917.001-22.289-15.441-41.838-36.639-47.356zm-153.094 164.107c-41.539 0-75.333-33.794-75.333-75.333s33.794-75.334 75.333-75.334 75.333 33.794 75.333 75.334-33.794 75.333-75.333 75.333zm140.817-82.834h-50.797c-3.826-46.314-42.736-82.833-90.02-82.833s-86.194 36.519-90.019 82.834h-42.514c-23.27 0-42.2-18.931-42.2-42.2s18.931-42.2 42.2-42.2c4.777 0 9.469.801 13.953 2.372.124.049.247.104.372.15 9.224 3.344 17.184 9.854 22.233 18.581 1.391 2.403 3.909 3.746 6.499 3.746 1.275 0 2.566-.326 3.749-1.01 3.585-2.074 4.811-6.662 2.736-10.248-5.856-10.121-14.603-18.04-24.841-22.953 5.027-41.597 40.506-73.472 82.983-73.472 33.096 0 63.13 19.569 76.516 49.854 1.626 3.681 5.87 5.421 9.613 3.944 6.889-2.719 14.14-4.098 21.554-4.098 27.033 0 50.478 18.296 57.013 44.492.732 2.935 3.155 5.142 6.145 5.599 16.387 2.503 28.743 16.916 28.743 33.526-.001 18.702-15.216 33.916-33.918 33.916z" fill="#a6b6c2" data-original="#000000" style="" class=""/><path d="m371.967 364.467h-9.066v-9.067c0-13.27-10.797-24.066-24.067-24.066h-42.838c-2.422 0-4.698-.943-6.41-2.656l-23.429-23.428c-4.545-4.546-10.589-7.049-17.019-7.049h-109.105c-13.271 0-24.066 10.796-24.066 24.066v165.199c0 13.138 10.064 23.902 22.913 24.507.393.018.783.028 1.174.028h240.196c8.703 0 15.783-7.08 15.783-15.783v-107.685c0-13.27-10.795-24.066-24.066-24.066zm9.066 24.066v9.067h-216.933v-42.2c0-4.999 4.067-9.066 9.067-9.066h75.972c2.422 0 4.698.943 6.41 2.655l23.429 23.428c4.545 4.546 10.589 7.05 17.018 7.05h75.972c4.998 0 9.065 4.067 9.065 9.066zm-250.066-66.266c0-4.999 4.067-9.066 9.066-9.066h109.104c2.423 0 4.699.943 6.411 2.655l23.429 23.428c4.545 4.546 10.589 7.05 17.018 7.05h42.838c5 0 9.067 4.067 9.067 9.066v9.067h-51.905c-2.422 0-4.698-.943-6.41-2.656l-23.429-23.428c-4.545-4.546-10.589-7.049-17.018-7.049h-75.972c-13.27 0-24.067 10.796-24.067 24.066v132.533c0 2.503-.998 4.834-2.81 6.562-1.811 1.726-4.18 2.61-6.705 2.494-4.752-.224-8.618-4.496-8.618-9.524v-165.198zm249.283 174.733h-217.941c1.164-2.859 1.791-5.939 1.791-9.067v-75.333h216.934v83.617c-.001.431-.352.783-.784.783z" fill="#a6b6c2" data-original="#000000" style="" class=""/><path d="m222.867 364.467h-33.134c-4.143 0-7.5 3.358-7.5 7.5s3.357 7.5 7.5 7.5h33.134c4.143 0 7.5-3.358 7.5-7.5s-3.357-7.5-7.5-7.5z" fill="#a6b6c2" data-original="#000000" style="" class=""/><path d="m347.401 430.733h-33.7c-8.547 0-15.5 6.953-15.5 15.5v17.133c0 8.547 6.953 15.5 15.5 15.5h33.7c8.547 0 15.5-6.953 15.5-15.5v-17.133c0-8.546-6.953-15.5-15.5-15.5zm.5 32.634c0 .276-.225.5-.5.5h-33.7c-.275 0-.5-.224-.5-.5v-17.133c0-.276.225-.5.5-.5h33.7c.275 0 .5.224.5.5z" fill="#a6b6c2" data-original="#000000" style="" class=""/><path d="m264.945 136.723c-2.219-2.663-5.478-4.189-8.944-4.189s-6.726 1.527-8.943 4.189l-32.574 39.089c-2.923 3.508-3.536 8.256-1.6 12.391 1.938 4.135 5.977 6.704 10.543 6.704h8.508v36.244c0 8.703 7.08 15.783 15.783 15.783h16.566c8.703 0 15.783-7.08 15.783-15.783v-36.244h8.508c4.566 0 8.605-2.569 10.543-6.704 1.936-4.135 1.323-8.883-1.6-12.391zm11.763 43.183c-6.419 0-11.642 5.223-11.642 11.642v39.602c0 .432-.352.783-.783.783h-16.566c-.432 0-.783-.352-.783-.783v-39.602c0-6.419-5.223-11.642-11.642-11.642h-4.696l25.404-30.485 25.404 30.485z" fill="#a6b6c2" data-original="#000000" style="" class=""/></g></g></svg>
