<svg width="104" height="100" viewBox="0 0 104 87" xmlns="http://www.w3.org/2000/svg">
    <filter id="a">
        <feGaussianBlur in="SourceGraphic"></feGaussianBlur>
    </filter>
    <path filter="url(#a)" d="M142.705 73.018c1.802 1.879 1.742 4.87-.132 6.667a4.684 4.684 0 0 1-3.259 1.316 4.67 4.67 0 0 1-3.4-1.449l-18.89-19.646c-.015.011-.032.02-.048.031l3.136 4.516a7.053 7.053 0 0 1 1.278 4.036v10.593c0 4.306-3.503 7.809-7.808 7.809H47.808c-4.305 0-7.808-3.503-7.808-7.809V68.489c0-1.436.441-2.832 1.277-4.036L56.536 42.48c.438-.627.983-1.199 1.692-1.766-.708-.566-1.252-1.137-1.688-1.763L41.277 16.975A7.046 7.046 0 0 1 40 12.94c0-4.103 3.593-7.44 8.008-7.44h32.297c.033 0 .062.013.093.019A32.6 32.6 0 0 1 98.581 0c18.089 0 32.805 14.713 32.805 32.798 0 7.55-2.628 14.898-7.408 20.745l18.726 19.474.001.001zm-.824 5.945a3.72 3.72 0 0 0 .102-5.253l-19.036-19.796a.502.502 0 0 1-.022-.669 31.816 31.816 0 0 0 7.461-20.447C130.386 15.265 116.118 1 98.581 1 81.049 1 66.785 15.265 66.785 32.798c0 17.536 14.264 31.803 31.796 31.803 6.572 0 12.872-1.992 18.22-5.758a.5.5 0 0 1 .648.062l19.187 19.954a3.672 3.672 0 0 0 2.678 1.142c.96 0 1.871-.369 2.567-1.038zM119.29 65.024l-3.161-4.552a32.51 32.51 0 0 1-5.708 2.918l1.101 1.562c.504.713.568 1.638.166 2.411a2.329 2.329 0 0 1-2.068 1.257H51.733a2.327 2.327 0 0 1-1.913-3.653l12.718-18.319a2.33 2.33 0 0 1 1.913-1l3.961.006a32.605 32.605 0 0 1-1.528-4.44h-7.66c-.816.603-1.416 1.19-1.867 1.837L42.1 65.024a6.05 6.05 0 0 0-1.1 3.465v10.593a6.816 6.816 0 0 0 6.808 6.809h65.774a6.816 6.816 0 0 0 6.808-6.809V68.489a6.05 6.05 0 0 0-1.1-3.465zm-50.425-18.37l-4.411-.006c-.438 0-.847.212-1.094.57L50.643 65.536a1.326 1.326 0 0 0 1.09 2.084h57.887a1.33 1.33 0 0 0 1.181-.719 1.317 1.317 0 0 0-.097-1.372l-1.265-1.795a32.614 32.614 0 0 1-10.858 1.867c-13.135 0-24.485-7.767-29.716-18.947zm-11.504-8.273c.449.645 1.048 1.231 1.863 1.833h7.417a32.73 32.73 0 0 1-.856-7.416c0-10.753 5.202-20.313 13.22-26.298H48.008C44.144 6.5 41 9.389 41 12.94c0 1.231.38 2.429 1.099 3.464l15.262 21.977zm65.047-21.52a28.726 28.726 0 0 0-5.908-6.386.5.5 0 0 1 .623-.782 29.731 29.731 0 0 1 6.113 6.606.5.5 0 1 1-.828.561zM98.754 4.272a.5.5 0 0 1 0-1c5.188 0 10.296 1.37 14.769 3.963a.5.5 0 0 1-.502.865 28.475 28.475 0 0 0-14.267-3.828zm-4.773 26.712v-4.85h2.874v12.71H93.98V33.56h-7.17v5.286h-2.874v-12.71h2.874v4.849h7.17zm3.157 51.252a3.158 3.158 0 0 1-3.153-3.154 3.158 3.158 0 0 1 3.153-3.156 3.158 3.158 0 0 1 3.154 3.155 3.158 3.158 0 0 1-3.154 3.155zm0-7.31a4.159 4.159 0 0 1 4.154 4.155 4.158 4.158 0 0 1-4.154 4.155 4.158 4.158 0 0 1-4.153-4.154 4.159 4.159 0 0 1 4.153-4.156zm10.963 0a4.159 4.159 0 0 1 4.154 4.155 4.158 4.158 0 0 1-4.154 4.155 4.158 4.158 0 0 1-4.154-4.154 4.159 4.159 0 0 1 4.154-4.156zm0 7.31a3.158 3.158 0 0 0 3.154-3.154 3.158 3.158 0 0 0-3.154-3.156 3.158 3.158 0 0 0-3.154 3.155 3.158 3.158 0 0 0 3.154 3.155zM98.58 8.428c13.441 0 24.377 10.932 24.377 24.37 0 13.44-10.936 24.375-24.377 24.375-13.436 0-24.368-10.935-24.368-24.375 0-13.438 10.932-24.37 24.368-24.37zm0 47.745c12.89 0 23.377-10.486 23.377-23.375 0-12.887-10.487-23.37-23.377-23.37-12.885 0-23.368 10.483-23.368 23.37 0 12.889 10.483 23.375 23.368 23.375zm7.519-30.337c3.862 0 7.126 2.667 7.126 6.666 0 1.654-.551 3.103-1.494 4.206l1.194 1.172-1.883 1.885-1.426-1.402c-1.034.528-2.253.804-3.517.804-3.861 0-7.125-2.666-7.125-6.665s3.264-6.666 7.125-6.666zm3.678 8.918c.367-.62.575-1.379.575-2.252 0-2.62-1.862-4.207-4.253-4.207-2.39 0-4.252 1.587-4.252 4.207s1.862 4.206 4.252 4.206c.575 0 1.103-.092 1.609-.253l-1.173-1.195 1.863-1.908 1.379 1.402z" transform="translate(-40)" fill="#333" shape-rendering="geometricPrecision" fill-rule="evenodd"></path>
</svg>