<svg xmlns="http://www.w3.org/2000/svg" width="118" height="100" viewBox="0 -7.5 118 92.5"><filter id="a"><feGaussianBlur in="SourceGraphic"></feGaussianBlur></filter><path filter="url(#a)" shape-rendering="geometricPrecision" fill="#333" fill-rule="evenodd" d="M106.917 10.943c5.895 0 10.691 4.796 10.691 10.692v51.984c0 5.896-4.796 10.691-10.691 10.691H10.691C4.795 84.31 0 79.515 0 73.619V21.635c0-5.896 4.795-10.692 10.691-10.692h11.492C24.242 6.974 28.908 0 31.563 0h16.392c2.655 0 7.32 6.974 9.379 10.943H83.43V9.198a.5.5 0 0 1 .5-.5h16.315a.5.5 0 0 1 .5.5v1.745h6.172zm9.691 62.676V21.635c0-5.344-4.348-9.692-9.691-9.692H57.028a.5.5 0 0 1-.446-.274C54.137 6.837 49.744 1 47.955 1H31.563c-1.79 0-6.184 5.837-8.628 10.669a.5.5 0 0 1-.446.274H10.691C5.347 11.943 1 16.291 1 21.635v51.984c0 5.344 4.347 9.691 9.691 9.691h96.226c5.343 0 9.691-4.347 9.691-9.691zM8.958 78.603a.503.503 0 0 1-.503-.503V23.998c0-.278.225-.503.503-.503h78.457c.278 0 .503.225.503.503V78.1a.503.503 0 0 1-.503.503H8.958zm75.472-67.66h15.314V9.698H84.43v1.245zM32.213 19.26a4.888 4.888 0 0 1-4.884-4.884V9.803a4.889 4.889 0 0 1 4.884-4.884H47.05a4.89 4.89 0 0 1 4.883 4.884v4.573a4.889 4.889 0 0 1-4.883 4.884H32.213zm-3.884-9.457v4.573a3.888 3.888 0 0 0 3.884 3.884H47.05a3.888 3.888 0 0 0 3.883-3.884V9.803a3.888 3.888 0 0 0-3.883-3.884H32.213a3.888 3.888 0 0 0-3.884 3.884zm3.639 6.552a1.737 1.737 0 0 1-1.734-1.735V9.557c0-.955.778-1.733 1.734-1.733h15.325c.957 0 1.735.778 1.735 1.733v5.063c0 .955-.778 1.735-1.735 1.735H31.968zm-.734-6.798v5.063c0 .406.329.735.734.735h15.325a.735.735 0 0 0 .735-.735V9.557a.735.735 0 0 0-.735-.733H31.968a.734.734 0 0 0-.734.733zm70.769 49.464c4.918 0 8.919 4.001 8.919 8.92 0 4.918-4.001 8.92-8.92 8.92-4.918 0-8.92-4.002-8.92-8.92 0-4.919 4.002-8.92 8.92-8.92zm0 16.84c4.366 0 7.919-3.554 7.919-7.92 0-4.367-3.553-7.92-7.92-7.92-4.366 0-7.92 3.553-7.92 7.92 0 4.366 3.554 7.92 7.92 7.92zm7.466-23.668c1.8 0 3.265 1.465 3.265 3.264a3.27 3.27 0 0 1-3.265 3.267 3.27 3.27 0 0 1-3.265-3.267c0-1.8 1.465-3.264 3.265-3.264zm0 5.53a2.268 2.268 0 0 0 2.265-2.266 2.267 2.267 0 0 0-2.265-2.264 2.267 2.267 0 0 0-2.265 2.264 2.268 2.268 0 0 0 2.265 2.267zm-7.466 3.515a6.71 6.71 0 0 1 6.702 6.702 6.71 6.71 0 0 1-6.702 6.703A6.71 6.71 0 0 1 95.3 67.94a6.71 6.71 0 0 1 6.702-6.702zm0 12.405a5.709 5.709 0 0 0 5.702-5.703 5.707 5.707 0 0 0-5.702-5.702A5.707 5.707 0 0 0 96.3 67.94a5.709 5.709 0 0 0 5.702 5.703zm0-8.967c1.8 0 3.265 1.465 3.265 3.264a3.27 3.27 0 0 1-3.265 3.266 3.27 3.27 0 0 1-3.266-3.266 3.27 3.27 0 0 1 3.266-3.264zm0 5.53a2.268 2.268 0 0 0 2.265-2.266 2.267 2.267 0 0 0-4.531 0 2.27 2.27 0 0 0 2.266 2.266zm2.36-39.479c5.077.34 8.762 2.39 8.762 4.876 0 2.485-3.685 4.536-8.762 4.875a.502.502 0 0 1-.533-.499v-8.753a.503.503 0 0 1 .533-.499zm.467 8.71c4.132-.39 7.295-2.03 7.295-3.834 0-1.805-3.163-3.445-7.295-3.835v7.67zm-3.377 1.041c-5.077-.338-8.762-2.389-8.762-4.875 0-2.487 3.685-4.538 8.762-4.876a.503.503 0 0 1 .533.499v8.753a.503.503 0 0 1-.5.5h-.033zm-.467-8.71c-4.132.39-7.295 2.03-7.295 3.835 0 1.805 3.163 3.445 7.295 3.834v-7.669zM34.01 64.1v-7.126a.96.96 0 0 0-.96-.959H19.9a.96.96 0 0 0-.96.96v.58a1.71 1.71 0 0 1 1.008 1.556v.293c0 .321-.094.62-.25.877.577.276.978.86.978 1.54v.293c0 .563-.276 1.06-.696 1.371.226.29.367.651.367 1.047v.293c0 .08-.013.157-.024.234h12.729a.96.96 0 0 0 .959-.959zm0 9.191v-6.267a.96.96 0 0 0-.96-.959H19.9c-.026 0-.048-.01-.073-.015-.068.066-.14.126-.218.18.067.09.125.186.173.29.02-.004.04-.014.062-.014h5.305c.278 0 .503.225.503.503v5.521a.503.503 0 0 1-.503.503h-5.305a.503.503 0 0 1-.503-.503v-3.697a1.736 1.736 0 0 1-.4.26v4.198h15.07zm-2.23-12.448c1.106 0 2.008.901 2.008 2.01a2.011 2.011 0 0 1-2.009 2.008 2.011 2.011 0 0 1-2.009-2.008c0-1.108.902-2.01 2.01-2.01zm0 3.011c.551 0 1.001-.45 1.001-1.002s-.45-1.002-1.002-1.002-1.002.45-1.002 1.003c0 .551.45 1.002 1.002 1.002zm-4.538-7.043a.503.503 0 1 1 0 1.006H21.31a.504.504 0 1 1 0-1.006h5.932zm0 2.634a.503.503 0 1 1 0 1.006H21.31a.504.504 0 1 1 0-1.006h5.932zm-2.807 2.302a.503.503 0 1 1 0 1.006h-2.007a.503.503 0 1 1 0-1.006h2.007zm8.196 4.76a.503.503 0 1 1 0 1.006h-5.754a.503.503 0 1 1 0-1.006h5.754zm0 2.76a.503.503 0 1 1 0 1.006h-5.754a.503.503 0 1 1 0-1.006h5.754zM9.461 24.501v53.096h16.16A2.272 2.272 0 0 1 25 76.115h-5.1a1.967 1.967 0 0 1-1.965-1.965v-4.903h-2.551a1.715 1.715 0 0 1-1.713-1.713v-.293c0-.47.19-.899.5-1.208a1.705 1.705 0 0 1-.5-1.209v-.293c0-.472.192-.899.5-1.209a1.71 1.71 0 0 1-.5-1.209v-.293c0-.472.19-.899.5-1.209a1.703 1.703 0 0 1-.5-1.208v-.293c0-.945.768-1.712 1.713-1.712h2.55v-.425c0-.929.65-1.705 1.519-1.909v-.98c0-.944.767-1.71 1.712-1.71h.292c.945 0 1.712.766 1.712 1.71v.924h9.883c1.084 0 1.965.882 1.965 1.965v6.482l2.519-.593-.005-.01a.505.505 0 0 1 .039-.489l1.213-1.819a1.39 1.39 0 0 1 .988-.61c.132-.016.263-.007.393.014v-2.185l-.455-.34A5.84 5.84 0 0 1 37.372 53l-.026-.576a1.57 1.57 0 0 1-1.46-1.182l-1.006-4.03a2.337 2.337 0 0 1 .427-2.017c.048-.062.11-.108.164-.164-.278-1.61-.762-2.806-1.408-3.452a.502.502 0 0 1-.142-.282c-.046-.312-1.025-7.444 4.499-12.01l-.752-.514a.504.504 0 0 1 .052-.862c2.82-1.468 8.182-2.315 10.969-2.362 4.965-.09 7.829 1.692 9.235 3.461.023.002.045-.004.067.002 5.943 1.23 5.453 11.79 5.429 12.238a.502.502 0 0 1-.13.311c-.777.856-1.285 1.97-1.531 3.297.119.101.232.211.33.337.449.575.605 1.31.428 2.017l-1.007 4.03a1.569 1.569 0 0 1-1.46 1.181l-.026.578a5.837 5.837 0 0 1-2.337 4.421l-.454.34v2.187c.13-.02.26-.03.394-.016.403.051.762.273.987.611l1.213 1.82a.505.505 0 0 1 .039.487l-.005.011 9.404 2.213a4.058 4.058 0 0 1 3.14 3.965v6.99c0 .607-.242 1.157-.63 1.567h15.137V24.501H9.46zM71.399 76.03v-6.99a3.06 3.06 0 0 0-.121-.818 3.057 3.057 0 0 0-.242-.627l-.001-.004-5.35 4.805a3.964 3.964 0 0 0-1.311 2.945v1.97h5.743c.707 0 1.282-.575 1.282-1.282zm-8.032 1.282v-1.97a4.97 4.97 0 0 1 1.647-3.693l5.405-4.856a3.061 3.061 0 0 0-1.385-.739l-9.597-2.258-3.403 7.487a1.631 1.631 0 0 1-1.501.961c-.38 0-.75-.132-1.051-.38a34.547 34.547 0 0 0-2.156-1.638 1.492 1.492 0 0 1-.381.551l.454 6.535h1.258v-.389c0-.77.626-1.396 1.397-1.396H60.3c.77 0 1.396.626 1.396 1.396v.39h1.67zm-2.677 0v-.389a.39.39 0 0 0-.39-.39h-6.246a.39.39 0 0 0-.391.39v.39h7.027zm-10.263-7.635v-.06a27.17 27.17 0 0 0-1.728-1.048c-.303.165-.912.515-1.73 1.048v.06c0 .273.224.495.496.495h2.466a.496.496 0 0 0 .496-.495zm-3.42 7.635h3.383l-.426-6.137-.033.003h-2.466c-.011 0-.021-.003-.032-.003l-.426 6.137zm-6.802-16.28l-.001-.002a.375.375 0 0 0-.31-.096.38.38 0 0 0-.274.17l-1.057 1.586 3.716 8.176a.645.645 0 0 0 .996.221c1.976-1.629 3.679-2.684 4.56-3.189l-7.63-6.867zm8.494 6.29l7.528-6.776v-2.028l-2.23 1.673a5.905 5.905 0 0 1-3.513 1.17h-3.57a5.91 5.91 0 0 1-3.516-1.17l-2.228-1.672v2.027l7.529 6.775zm8.493-6.29l-7.63 6.866c.88.505 2.584 1.56 4.56 3.19a.641.641 0 0 0 .996-.222l3.716-8.176-1.057-1.586a.38.38 0 0 0-.275-.17.371.371 0 0 0-.31.096v.001zm1.824-29.678c.183 1.727-.23 3.162-1.223 4.267-.23.256-.502.485-.793.703 2.363 1.978 2.815 6.19 2.897 7.993v.01c.113-.016.224-.036.338-.036.206 0 .406.033.6.084.288-1.312.81-2.444 1.587-3.349.035-1.243.08-8.83-3.697-10.696.159.374.26.725.29 1.024zm-19.46-2.51a.505.505 0 0 1 .015.821c-5.204 3.841-4.783 10.266-4.673 11.334.68.751 1.17 1.93 1.48 3.47.34-.112.7-.15 1.057-.114.032-1.873.506-4.786 2.976-6.242 2.475-1.459 4.694-1.267 6.836-1.08.71.06 1.383.118 2.065.118 3.816 0 6.417-.74 7.733-2.203.795-.884 1.122-2.058.97-3.488-.167-1.584-2.755-5.013-9.308-4.904-2.446.041-6.932.712-9.741 1.886l.59.402zm-1.013 21.651a.502.502 0 0 1 .437.561c-.055.443-.303.81-.642 1.06l.038.84a4.838 4.838 0 0 0 1.936 3.661l3.69 2.768c.835.626 1.869.97 2.912.97h3.57a4.878 4.878 0 0 0 2.91-.97l3.69-2.768a4.838 4.838 0 0 0 1.936-3.66l.039-.842a1.553 1.553 0 0 1-.642-1.059.502.502 0 1 1 .998-.124.57.57 0 0 0 1.118.066l1.008-4.029a1.336 1.336 0 0 0-.245-1.154c-.494-.634-1.54-.666-2.071-.062a1.345 1.345 0 0 0-.325 1.056.503.503 0 1 1-.998.125 2.349 2.349 0 0 1 .57-1.847c.14-.159.305-.288.479-.402-.021-.108-.054-.215-.06-.323-.062-1.356-.452-5.84-2.816-7.47-1.62.835-3.873 1.265-6.763 1.265-.725 0-1.45-.063-2.152-.123-2.077-.179-4.043-.348-6.238.946-2.191 1.29-2.502 4.09-2.485 5.71.178.11.347.235.489.397.446.505.653 1.178.569 1.847a.503.503 0 1 1-.998-.125 1.348 1.348 0 0 0-.325-1.057c-.532-.6-1.576-.57-2.072.063a1.338 1.338 0 0 0-.244 1.154l1.008 4.03a.57.57 0 0 0 1.118-.067.501.501 0 0 1 .56-.437zm10.155 6.363c-1.93 0-2.808-.725-3.61-1.532a.502.502 0 1 1 .713-.709c.575.578 1.227 1.235 2.897 1.235 1.67 0 2.322-.657 2.898-1.235a.502.502 0 1 1 .713.709c-.803.808-1.683 1.532-3.611 1.532zm-2.7 20.454l.454-6.535a1.493 1.493 0 0 1-.38-.55c-.657.46-1.383 1-2.157 1.637a1.653 1.653 0 0 1-1.428.337 1.63 1.63 0 0 1-1.124-.918l-3.403-7.487-2.984.703a1.96 1.96 0 0 1-.623 1.063c.404.36.664.88.664 1.462v7.127c0 .726-.4 1.354-.987 1.694v1.467h11.968zm-25.54-22.303h1.705v-.924a.706.706 0 0 0-.706-.705h-.292a.706.706 0 0 0-.706.705v.924zm-.111 17.018h4.299v-4.514h-4.3v4.514zm-4.963-5.49a.707.707 0 0 0-.707.705v.293c0 .39.317.707.707.707h2.852a.708.708 0 0 0 .706-.707v-.293a.706.706 0 0 0-.706-.705h-2.852zm0-2.71a.707.707 0 0 0-.707.705v.293c0 .39.317.706.707.706h3.251a.707.707 0 0 0 .706-.706v-.293a.706.706 0 0 0-.706-.705h-3.251zm-.707-4.423c0 .39.317.705.707.705h2.852a.706.706 0 0 0 .706-.705v-.293a.707.707 0 0 0-.706-.706h-2.852a.707.707 0 0 0-.707.706v.293zm.707 1.711a.707.707 0 0 0-.707.706v.293c0 .39.317.706.707.706h3.58c.39 0 .706-.317.706-.706v-.293a.707.707 0 0 0-.706-.706h-3.58zM33.052 75.11a.948.948 0 0 0 .929-.813H18.97a.95.95 0 0 0 .93.813h13.152zm-.03 2.202v-1.196h-7.007a1.275 1.275 0 0 0 1.265 1.196h5.743z"></path></svg>