<svg xmlns="http://www.w3.org/2000/svg" data-v-70411fd8="" width="97" height="87" viewBox="0 0 97 87" class="selfie-upload__area-icon" data-v-29983112=""><filter id="a" fill="#dee3e7"><feGaussianBlur in="SourceGraphic"/></filter><path filter="url(#a)" d="M754.948 671.663l-16.022-3.77.178-.391a.5.5 0 0 0-.04-.485l-2.013-3.02a1.982 1.982 0 0 0-1.403-.868 2.008 2.008 0 0 0-.947.123v-4.13c0-.032-.012-.06-.018-.09l.907-.68a9.365 9.365 0 0 0 3.749-7.09l.058-1.278c.068.006.134.019.203.019a2.28 2.28 0 0 0 2.215-1.73l1.674-6.695a3.55 3.55 0 0 0-.65-3.063 3.635 3.635 0 0 0-.657-.637c.405-2.354 1.296-4.321 2.669-5.831a.502.502 0 0 0 .129-.31c.039-.734.84-18-8.754-19.986a.502.502 0 0 0-.197 0c-2.244-2.9-6.95-5.89-15.181-5.746-4.597.078-13.437 1.472-18.076 3.887a.498.498 0 0 0-.052.856l1.623 1.108c-9.42 7.468-7.722 19.802-7.704 19.928a.505.505 0 0 0 .142.28c1.138 1.138 1.986 3.223 2.455 6.03.002.015.01.026.014.039-.13.123-.263.239-.374.382a3.548 3.548 0 0 0-.651 3.063l1.674 6.696a2.28 2.28 0 0 0 2.215 1.729c.069 0 .135-.013.203-.02l.058 1.28a9.36 9.36 0 0 0 3.749 7.089l.906.68c-.005.03-.018.058-.018.09v4.127a1.955 1.955 0 0 0-.946-.12 1.983 1.983 0 0 0-1.403.867l-2.014 3.02a.503.503 0 0 0-.04.486l.179.39-4.996 1.177v-11.85a2.274 2.274 0 0 0-2.271-2.271h-17.412v-1.626a2.755 2.755 0 0 0-2.752-2.752 2.755 2.755 0 0 0-2.752 2.752v1.626h-.252a2.273 2.273 0 0 0-2.27 2.27v1.7h-4.734a2.351 2.351 0 0 0-2.35 2.348v.807c0 .753.365 1.418.918 1.848a2.34 2.34 0 0 0-.917 1.848v.807c0 .754.364 1.419.917 1.849a2.337 2.337 0 0 0-.917 1.848v.806c0 .754.364 1.419.918 1.849a2.336 2.336 0 0 0-.918 1.848v.807a2.351 2.351 0 0 0 2.349 2.348h4.734v9.14a2.272 2.272 0 0 0 2.27 2.27h9.454v.194a3.47 3.47 0 0 0 3.466 3.465h71.168a3.47 3.47 0 0 0 3.465-3.465v-11.612a6.407 6.407 0 0 0-4.958-6.26zm3.958 17.872A2.467 2.467 0 0 1 756.44 692h-9.88v-3.607a6.92 6.92 0 0 1 2.295-5.143l9.183-8.25c.023.036.047.069.069.105.083.137.159.279.23.422.052.108.1.217.146.328.058.14.113.282.159.427.044.14.078.284.11.429.029.122.062.243.08.367.044.277.073.557.073.845v11.612zm-13.344-1.142V692h-3.448v-.983c0-1.093-.89-1.982-1.982-1.982h-10.38a1.985 1.985 0 0 0-1.982 1.982V692h-2.74l-.787-11.34c.406-.323.693-.784.784-1.318a58.507 58.507 0 0 1 3.99 3.012 2.405 2.405 0 0 0 2.085.492 2.37 2.37 0 0 0 1.635-1.336l5.77-12.694c.008.003.015.009.024.01l16.188 3.81a5.397 5.397 0 0 1 2.703 1.575l-9.234 8.295a7.92 7.92 0 0 0-2.626 5.887zm-72.642-4.173h8.814a.5.5 0 0 0 .5-.5v-9.171a.5.5 0 0 0-.5-.5h-8.814a.483.483 0 0 0-.264.086 2.367 2.367 0 0 0-.541-.963c.264-.132.499-.31.695-.528h22.71c.7 0 1.272.57 1.272 1.27v11.405h-25.71v-7.498a2.364 2.364 0 0 0 1.338-1.046v6.945a.5.5 0 0 0 .5.5zm47.937-26.873c-3.076 0-4.48-1.158-5.761-2.448a.5.5 0 0 1 .709-.704c1.211 1.22 2.352 2.152 5.052 2.152 2.698 0 3.84-.933 5.052-2.152a.5.5 0 1 1 .709.705c-1.282 1.29-2.687 2.447-5.761 2.447zM741.114 692H728.77v-.983c0-.541.44-.982.983-.982h10.379c.542 0 .982.44.982.982V692zm-17.051-13.02a1.16 1.16 0 0 1-1.157 1.159h-4.1a1.16 1.16 0 0 1-1.156-1.158v-.286a43.331 43.331 0 0 1 3.207-1.94c.462.249 1.625.898 3.206 1.94v.286zM717.686 692l.758-10.898c.118.02.239.037.363.037h4.099c.125 0 .246-.016.365-.037l.756 10.898h-6.341zm-1.003 0H696.15v-2.76a2.266 2.266 0 0 0 1.64-2.17v-13.155c0-.72-.342-1.354-.866-1.771.524-.416.867-1.05.867-1.77v-.278l5.386-1.268c.01-.002.019-.01.029-.013l5.77 12.694a2.368 2.368 0 0 0 1.634 1.337 2.397 2.397 0 0 0 2.085-.492 58.259 58.259 0 0 1 3.99-3.012c.09.534.379.996.785 1.32L716.683 692zm-21.162-3.66h-23.168c-.7 0-1.27-.57-1.27-1.27v-.751h25.709v.752c0 .7-.571 1.27-1.271 1.27zm-.37 3.66h-9.878a2.468 2.468 0 0 1-2.466-2.465v-.194h12.344V692zm-24.742-15.07h-5.06a1.35 1.35 0 0 1-1.35-1.347v-.807a1.35 1.35 0 0 1 1.35-1.348h5.06a1.35 1.35 0 0 1 1.348 1.348v.807a1.35 1.35 0 0 1-1.348 1.348zm-6.41-6.657a1.35 1.35 0 0 1 1.35-1.348h5.723a1.35 1.35 0 0 1 1.348 1.348v.806a1.35 1.35 0 0 1-1.348 1.349h-5.723a1.35 1.35 0 0 1-1.35-1.35v-.805zm0-4.504a1.35 1.35 0 0 1 1.35-1.348h6.27a1.35 1.35 0 0 1 1.348 1.348v.807a1.35 1.35 0 0 1-1.348 1.349h-6.27a1.35 1.35 0 0 1-1.35-1.35v-.806zm0-4.503a1.35 1.35 0 0 1 1.35-1.348h5.06a1.35 1.35 0 0 1 1.348 1.348v.807a1.35 1.35 0 0 1-1.348 1.348h-5.06a1.35 1.35 0 0 1-1.35-1.348v-.807zm9.42 21.954h7.815v-8.171h-7.814v8.17zm-2.336-26.001c0-.701.57-1.271 1.27-1.271h23.168c.7 0 1.27.57 1.27 1.27v13.156c0 .7-.57 1.27-1.27 1.27h-22.177a2.34 2.34 0 0 0 .076-.565v-.806a2.34 2.34 0 0 0-.678-1.647 2.342 2.342 0 0 0 1.225-2.05v-.807a2.345 2.345 0 0 0-1.721-2.252c.315-.4.51-.897.51-1.444v-.807a2.344 2.344 0 0 0-1.673-2.238v-1.81zm2.522-3.897c0-.966.786-1.752 1.752-1.752s1.752.786 1.752 1.752v1.626h-3.504v-1.626zm31.89 11.229a.982.982 0 0 1 1.474-.185l13.025 11.72c-1.278.71-4.33 2.525-7.935 5.497a1.407 1.407 0 0 1-2.172-.487l-6.252-13.755 1.86-2.79zm1.228-6.998a8.372 8.372 0 0 1-3.35-6.336l-.07-1.55a2.287 2.287 0 0 0 1.076-1.664.5.5 0 0 0-.993-.124 1.284 1.284 0 0 1-2.516.153l-1.674-6.696a2.556 2.556 0 0 1 .468-2.206 2.573 2.573 0 0 1 4.579 1.901.5.5 0 1 0 .992.124 3.57 3.57 0 0 0-.867-2.806 3.532 3.532 0 0 0-.898-.71v-.007c-.05-2.737.442-7.667 4.296-9.94 3.742-2.204 7.056-1.917 10.565-1.616 1.157.1 2.354.204 3.546.204 4.862 0 8.624-.731 11.27-2.157 4.193 2.702 4.873 10.463 4.98 12.785.01.245.057.488.122.728a3.55 3.55 0 0 0-.904.713 3.574 3.574 0 0 0-.866 2.806.5.5 0 1 0 .992-.124 2.573 2.573 0 1 1 5.047.305l-1.674 6.696a1.28 1.28 0 0 1-1.244.97 1.284 1.284 0 0 1-1.272-1.123.5.5 0 1 0-.992.124c.088.71.5 1.31 1.075 1.664l-.07 1.55a8.375 8.375 0 0 1-3.351 6.336l-6.13 4.597a8.446 8.446 0 0 1-5.038 1.679h-5.931a8.45 8.45 0 0 1-5.038-1.68l-6.13-4.596zm-9.113-26.07c-.163-1.445-1.095-12.62 7.883-19.247a.5.5 0 0 0-.015-.816l-1.481-1.011c4.658-2.116 12.612-3.332 16.869-3.404.175-.003.347-.004.519-.004 10.75 0 15 5.77 15.285 8.452.26 2.476-.31 4.513-1.7 6.055-2.251 2.503-6.656 3.772-13.093 3.772-1.15 0-2.324-.102-3.46-.2-3.513-.303-7.142-.616-11.16 1.752-4.096 2.415-4.781 7.38-4.787 10.398a3.56 3.56 0 0 0-.78-.09 3.57 3.57 0 0 0-1.55.355c-.506-2.734-1.352-4.76-2.53-6.012zm46.379.029c-1.37 1.559-2.27 3.544-2.722 5.875a3.552 3.552 0 0 0-1.245-.246c-.281 0-.557.04-.826.105-.028-.128-.064-.255-.07-.384-.11-2.374-.81-10.143-5.061-13.302.62-.418 1.187-.87 1.65-1.383 1.586-1.762 2.242-4.06 1.949-6.83-.072-.678-.355-1.516-.853-2.403 7.474 2.49 7.236 16.822 7.178 18.568zm-10.281 32.44l-12.851 11.566-12.845-11.56v-4.19l4.242 3.182a9.45 9.45 0 0 0 5.637 1.879h5.93c2.02 0 4.023-.667 5.639-1.88l4.24-3.18v4.15c0 .012.007.022.008.033zm1.036.414a.984.984 0 0 1 1.475.185l1.86 2.79-6.252 13.755c-.18.395-.526.677-.95.775-.434.1-.88-.004-1.223-.288-3.605-2.972-6.655-4.786-7.934-5.496l13.024-11.721zm-41.994 6.277a3.006 3.006 0 0 1-3-3.002 3.005 3.005 0 0 1 3-3.001 3.005 3.005 0 0 1 3.001 3 3.006 3.006 0 0 1-3 3.003zm0-5.003a2.004 2.004 0 0 0-2 2c0 1.105.898 2.003 2 2.003a2.003 2.003 0 0 0 2.001-2.002 2.003 2.003 0 0 0-2-2.001zm-17.394-6.7a.5.5 0 0 1 0-1h9.856a.5.5 0 0 1 0 1h-9.856zm0 1.876a.5.5 0 0 1 0-1h4.005a.5.5 0 0 1 0 1h-4.005zm0 2.501a.5.5 0 0 1 0-1h9.856a.5.5 0 0 1 0 1h-9.856zm0 1.965a.5.5 0 0 1 0-1h3.336a.5.5 0 0 1 0 1h-3.336zm9.251 9.767a.5.5 0 0 1 0-1h9.558a.5.5 0 0 1 0 1h-9.558zm0 1.98a.5.5 0 0 1 0-1h3.841a.5.5 0 0 1 0 1h-3.841zm0 2.605a.5.5 0 0 1 0-1h9.558a.5.5 0 0 1 0 1h-9.558z" transform="translate(-663 -606)" fill="#677683" shape-rendering="geometricPrecision" fill-rule="evenodd"/></svg>